<svg width="136" height="136" viewBox="0 0 136 136" fill="none" xmlns="http://www.w3.org/2000/svg">
<path d="M68 136C105.555 136 136 105.555 136 68C136 30.4446 105.555 0 68 0C30.4446 0 0 30.4446 0 68C0 105.555 30.4446 136 68 136Z" fill="#FF4E4E"/>
<path d="M97.9999 108.104L92.3707 50.9941L44.5554 51.0278L38.8008 108.104" fill="#FBE1DF"/>
<path d="M97.9999 108.104L92.3707 50.9941L44.5554 51.0278L38.8008 108.104" stroke="#FBE1DF" stroke-width="5" stroke-miterlimit="10"/>
<path d="M80.5882 56.0919L80.4343 40.4541C80.4343 33.9666 75.3235 28.707 69.0197 28.707C62.7158 28.707 57.605 33.9666 57.605 40.4541V56.5654" stroke="#F9CAC6" stroke-width="2.5" stroke-miterlimit="10" stroke-linecap="round"/>
<path fill-rule="evenodd" clip-rule="evenodd" d="M61.8244 79.5488C66.7415 79.5488 70.1414 75.1205 70.1414 71.4887C70.1414 68.861 67.6222 67.709 65.2257 67.709C59.8533 67.709 56.9087 72.4914 56.9087 75.7691C56.9087 78.3677 59.4579 79.5488 61.8244 79.5488Z" fill="#FF4E4E"/>
<path fill-rule="evenodd" clip-rule="evenodd" d="M82.6769 71.4887C82.6769 75.1205 79.4573 79.5488 74.799 79.5488C72.557 79.5488 70.1406 78.3677 70.1406 75.7691C70.1406 72.4914 72.9302 67.709 78.0186 67.709C80.2903 67.709 82.6769 68.8596 82.6769 71.4887Z" fill="#FF4E4E"/>
<path fill-rule="evenodd" clip-rule="evenodd" d="M65.5648 91.3538C69.9016 91.6206 73.9106 90.316 76.9012 87.7345L78.1264 91.1746L79.8917 82.3645L71.6669 82.334L74.4493 84.4403C71.9961 86.8425 67.4807 88.5334 63.8009 88.118C60.0324 87.7025 57.0109 85.1516 55.7843 82.3645H55.5156C56.2921 86.7258 60.0915 91.0273 65.5648 91.3538Z" fill="#FF4E4E"/>
</svg>
