<svg width="60" height="60" viewBox="0 0 60 60" fill="none" xmlns="http://www.w3.org/2000/svg">
<path d="M30 60C46.5667 60 60 46.5667 60 30C60 13.4333 46.5667 0 30 0C13.4333 0 0 13.4333 0 30C0 46.5667 13.4333 60 30 60Z" fill="#F9CAC6"/>
<path d="M32.2369 7C27.9267 7 24.415 10.3605 24.415 14.5036V22.9461C24.415 23.1191 24.561 23.2591 24.7413 23.2591H27.3171C27.4974 23.2591 27.6434 23.1191 27.6434 22.9461V14.5036C27.6434 12.0738 29.704 10.0887 32.2455 10.0887C34.7783 10.0887 36.839 12.0655 36.839 14.5036V22.9461C36.839 23.1191 36.9849 23.2591 37.1652 23.2591H39.741C39.9213 23.2591 40.0673 23.1191 40.0673 22.9461V14.4953C40.0415 10.3605 36.5385 7 32.2369 7Z" fill="#EC1D2C"/>
<path d="M45.1414 18.4736H14.8586C14.3864 18.4736 14 18.8443 14 19.2973V50.1764C14 50.6294 14.3864 51 14.8586 51H45.1414C45.6136 51 46 50.6294 46 50.1764V19.2973C46 18.836 45.6136 18.4736 45.1414 18.4736Z" fill="#FF4E4E"/>
<path d="M28.897 7C24.5869 7 21.0752 10.3605 21.0752 14.5036V22.9461C21.0752 23.1191 21.2212 23.2591 21.4015 23.2591H23.9773C24.1576 23.2591 24.3035 23.1191 24.3035 22.9461V14.5036C24.3035 12.0738 26.3642 10.0887 28.9056 10.0887C31.4385 10.0887 33.4991 12.0655 33.4991 14.5036V22.9461C33.4991 23.1191 33.6451 23.2591 33.8254 23.2591H36.4012C36.5815 23.2591 36.7275 23.1191 36.7275 22.9461V14.4953C36.7103 10.3605 33.1986 7 28.897 7Z" fill="#FFE6E4"/>
</svg>
