<svg width="24" height="24" viewBox="0 0 24 24" fill="none" xmlns="http://www.w3.org/2000/svg">
<path fill-rule="evenodd" clip-rule="evenodd" d="M4.84624 11.1538C4.29954 11.7105 4.29954 12.613 4.84624 13.1696L9.53501 17.9436C9.54301 17.9522 9.55114 17.9606 9.55939 17.969C9.56763 17.9774 9.57595 17.9857 9.58434 17.9939L9.61453 18.0246C10.1612 18.5812 11.0476 18.5812 11.5943 18.0246C11.6007 18.0181 11.6069 18.0116 11.6131 18.0051C11.6255 17.9933 11.6377 17.9813 11.6497 17.969L19.6815 9.79126C20.2587 9.20353 20.2587 8.25064 19.6815 7.66291C19.1042 7.07518 18.1684 7.07518 17.5911 7.66291L10.4943 14.8888L6.82602 11.1538C6.27932 10.5972 5.39294 10.5972 4.84624 11.1538Z" fill="#50A773"/>
</svg>
