<svg width="136" height="136" viewBox="0 0 136 136" fill="none" xmlns="http://www.w3.org/2000/svg">
<path d="M68 136C105.551 136 136 105.551 136 68C136 30.4491 105.551 0 68 0C30.4491 0 0 30.4491 0 68C0 105.551 30.4399 136 68 136Z" fill="#FF4E4E"/>
<rect x="30" y="31" width="76" height="57" rx="4" fill="#FBE1DF"/>
<path fill-rule="evenodd" clip-rule="evenodd" d="M64.3237 38.5361H72.1535C72.8096 38.5361 73.3444 37.9977 73.3444 37.3452C73.3444 36.6891 72.8096 36.1543 72.1535 36.1543H64.3237C63.6676 36.1543 63.1328 36.6891 63.1328 37.3452C63.1328 38.0012 63.6676 38.5361 64.3237 38.5361Z" fill="#FF4E4E"/>
<path d="M63 85H73V106H63V85Z" fill="#FBE1DF"/>
<path d="M54.667 102.898H82.3593V107.001H54.667V102.898Z" fill="#FBE1DF"/>
<path fill-rule="evenodd" clip-rule="evenodd" d="M59.9117 62.7347C65.4387 62.7347 69.2579 57.5982 69.2579 53.3819C69.2579 50.3304 66.4249 49 63.731 49C57.6943 49 54.3848 54.5468 54.3848 58.3528C54.3848 61.3645 57.2508 62.7347 59.9117 62.7347Z" fill="#FF4E4E"/>
<path fill-rule="evenodd" clip-rule="evenodd" d="M84.0001 53.3819C84.0001 57.5983 80.1809 62.7347 74.6539 62.7347C71.993 62.7347 69.127 61.3645 69.127 58.3528C69.127 54.5535 72.4365 49 78.4731 49C81.1671 48.9934 84.0001 50.3305 84.0001 53.3819Z" fill="#FF4E4E"/>
<path fill-rule="evenodd" clip-rule="evenodd" d="M64.2409 76.5017C69.1854 76.8128 73.7592 75.3036 77.1747 72.325L78.5713 76.2965L80.5835 66.1229L71.2042 66.0898L74.3748 68.519C71.5749 71.2925 66.4252 73.2451 62.2287 72.7686C57.9263 72.292 54.4843 69.3464 53.0877 66.1229H52.7832C53.6635 71.1601 57.9991 76.1244 64.2409 76.5017Z" fill="#FF4E4E"/>
</svg>
