<svg width="60" height="60" viewBox="0 0 60 60" fill="none" xmlns="http://www.w3.org/2000/svg">
<path d="M30 60C46.5685 60 60 46.5685 60 30C60 13.4315 46.5685 0 30 0C13.4315 0 0 13.4315 0 30C0 46.5685 13.4315 60 30 60Z" fill="#F9CAC6"/>
<path fill-rule="evenodd" clip-rule="evenodd" d="M46.976 44.4887C46.2207 47.5811 43.1818 49.5454 40.0519 48.9642L13.8 44.0895C11.8565 43.7286 10.2122 42.4356 9.48667 40.5969C9.09999 39.6168 8.65834 38.4515 8.22097 37.2001C6.4507 32.132 6.56733 26.5031 8.82078 21.6516C10.2703 18.5292 12.7029 15.3133 16.7599 12.8408C21.0656 10.223 29.7255 7.86362 39.2375 13.2452C39.2613 13.2586 39.2823 13.2704 39.3061 13.2839C40.0396 13.7017 52.9156 21.2913 48.7956 37.0387L46.976 44.4887Z" fill="#FF4E4E"/>
<path fill-rule="evenodd" clip-rule="evenodd" d="M52.3674 25.4182C51.8188 23.1701 49.6378 21.8516 47.3237 21.8516H29.6769C25.4449 21.8516 22.0127 25.3563 22.0127 29.681C22.0127 33.8556 25.2171 37.2726 29.251 37.4986C29.5342 37.5145 29.8178 37.5306 30.0986 37.5707L46.3471 39.8892C49.2906 40.3092 52.165 38.5154 52.6245 35.5778C53.2802 31.3857 53.0023 28.0195 52.3674 25.4182Z" fill="#FF4E4E"/>
<path fill-rule="evenodd" clip-rule="evenodd" d="M48.8081 37.2641C49.9849 32.5923 49.7627 28.6227 48.8271 25.3248C48.204 23.1285 46.0426 21.8516 43.7596 21.8516H29.6142C25.4197 21.8516 22.0166 25.4456 22.0166 29.8765C22.0166 34.1512 25.1841 37.6471 29.1739 37.8881C29.4665 37.9058 29.7598 37.9228 30.0497 37.9656L44.6044 40.1131C46.5325 40.3976 48.358 39.1604 48.8081 37.2641Z" fill="#FFE6E4"/>
<path d="M30.4841 32.7187C31.6879 32.7187 32.6626 31.6141 32.6626 30.2504C32.6626 28.8825 31.6879 27.7822 30.4841 27.7822C29.2803 27.7822 28.3057 28.8868 28.3057 30.2504C28.3057 31.6141 29.2803 32.7187 30.4841 32.7187Z" fill="#FF4E4E"/>
</svg>
