<svg width="136" height="136" viewBox="0 0 136 136" fill="none" xmlns="http://www.w3.org/2000/svg">
<g clip-path="url(#clip0_1896_91746)">
<path d="M68 136C105.555 136 136 105.555 136 68C136 30.4446 105.555 0 68 0C30.4446 0 0 30.4446 0 68C0 105.555 30.4446 136 68 136Z" fill="#FF4E4E"/>
<g clip-path="url(#clip1_1896_91746)">
<path d="M70.4641 82.1573C61.8786 82.0024 55.1411 74.0626 56.9506 65.0771C58.2981 58.4155 64.4581 53.8453 71.2341 53.8453H96.5286C100.533 53.8453 101.534 51.9475 100.61 50.5145C99.2235 48.2681 97.5681 46.1379 95.7201 44.1627C88.5206 36.5715 78.5876 32.1175 68.4621 32.0013C57.9131 31.8077 48.3266 35.8744 40.9346 43.1944C33.5426 50.5145 29.5001 60.3133 29.5001 70.7318C29.5001 77.316 34.9286 90.5231 35.1596 91.104C35.5831 92.111 36.4686 92.8469 37.5466 93.0406L97.2601 103.963C97.4526 104.001 97.6451 104.001 97.8376 104.001C99.1081 104.001 100.302 103.227 100.802 102.026C101.572 100.128 102.727 95.0546 103.805 89.5161C104.036 88.3154 103.228 87.1535 102.034 86.9599L70.4641 82.1573Z" fill="#FBE1DF"/>
<path d="M105.845 63.9142C105.46 61.8615 103.689 60.3123 101.61 60.3123H73.3899C67.3069 60.3123 63.8034 62.9072 63.1874 66.7028C62.4174 71.5054 66.0749 75.6883 70.7334 75.6883C70.8874 75.6883 71.0799 75.6883 71.2339 75.727L101.11 80.2585C103.458 80.607 105.691 78.9416 105.999 76.5403C106.269 74.6038 106.423 73.0933 106.461 72.1638C106.577 69.4139 106.346 66.6641 105.845 63.9142ZM71.0799 71.1181C69.3859 71.1181 67.9999 69.7238 67.9999 68.0196C67.9999 66.3155 69.3859 64.9212 71.0799 64.9212C72.7739 64.9212 74.1599 66.3155 74.1599 68.0196C74.1599 69.7238 72.7739 71.1181 71.0799 71.1181Z" fill="#FBE1DF"/>
</g>
</g>
<defs>
<clipPath id="clip0_1896_91746">
<rect width="136" height="136" fill="white"/>
</clipPath>
<clipPath id="clip1_1896_91746">
<rect width="77" height="72" fill="white" transform="translate(29.5 32)"/>
</clipPath>
</defs>
</svg>
