<svg width="137" height="136" viewBox="0 0 137 136" fill="none" xmlns="http://www.w3.org/2000/svg">
<path d="M68.3916 136C105.942 136 136.392 105.551 136.392 68C136.392 30.4491 105.942 0 68.3916 0C30.8407 0 0.391602 30.4491 0.391602 68C0.391602 105.551 30.8315 136 68.3916 136Z" fill="#FF4E4E"/>
<path fill-rule="evenodd" clip-rule="evenodd" d="M48.4004 69.9157C61.4311 69.9157 70.4356 57.98 70.4356 48.1822C70.4356 41.0916 63.7564 38 57.4048 38C43.1724 38 35.3696 50.8893 35.3696 59.7334C35.3696 66.7318 42.1268 69.9157 48.4004 69.9157Z" fill="#FBE7E5"/>
<path fill-rule="evenodd" clip-rule="evenodd" d="M105.192 48.1823C105.192 57.98 96.1873 69.9157 83.1565 69.9157C76.883 69.9157 70.1257 66.7318 70.1257 59.7335C70.1257 50.9048 77.9286 38.0001 92.161 38.0001C98.5126 37.9847 105.192 41.0916 105.192 48.1823Z" fill="#FBE7E5"/>
<path fill-rule="evenodd" clip-rule="evenodd" d="M58.6049 101.907C70.2624 102.63 81.046 99.1228 89.0985 92.2014L92.3913 101.43L97.1355 77.7893L75.0221 77.7125L82.4973 83.3573C75.896 89.8019 63.7548 94.3394 53.8608 93.232C43.717 92.1245 35.602 85.2799 32.3092 77.7893H31.5914C33.6669 89.4943 43.8887 101.03 58.6049 101.907Z" fill="#FBE7E5"/>
</svg>
