<svg width="144" height="120" viewBox="0 0 144 120" fill="none" xmlns="http://www.w3.org/2000/svg">
<path d="M84.9888 20.4466L75.3109 18.6455L71.1211 41.2287L80.799 43.0297L84.9888 20.4466Z" fill="#FC8684"/>
<path d="M117.923 0L107.891 3.63712L116.335 27.0358L126.368 23.4037L117.923 0Z" fill="#FFF7F6"/>
<path d="M113.338 96.6465L109.993 87.3711L88.4395 95.1706L91.7853 104.451L113.338 96.6465Z" fill="#F9CAC6"/>
<path d="M139.82 85.2289L144 76.2987L123.251 66.543L119.071 75.4732L139.82 85.2289Z" fill="#FFF7F6"/>
<path d="M118.317 42.334L95.2656 54.1059L100.444 63.8515L123.495 52.0797L118.317 42.334Z" fill="#F9CAC6"/>
<path d="M71.0609 54.4014L62.2969 61.1003L78.5516 83.1531L87.3156 76.4542L71.0609 54.4014Z" fill="#FFF7F6"/>
<path d="M48.0395 91.3535L40.8984 98.1425L56.6687 114.802L63.8148 108.013L48.0395 91.3535Z" fill="#FC8684"/>
<path d="M31.2506 67.2639L21.4128 67.0088L20.8086 89.9622L30.6463 90.2173L31.2506 67.2639Z" fill="#FFF7F6"/>
<path d="M0 101.639L23.156 120L29.9925 111.345L6.83648 92.9844L0 101.639Z" fill="#F9CAC6"/>
</svg>
